<?xml version="1.0" encoding="UTF-8" standalone="no"?>
<!-- Created with Inkscape (http://www.inkscape.org/) -->

<svg
   width="178.07338mm"
   height="177.9109mm"
   viewBox="0 0 178.07338 177.9109"
   version="1.1"
   id="svg1"
   inkscape:version="1.4.3 (0d15f75042, 2025-12-25)"
   sodipodi:docname="gatorcolor.svg"
   inkscape:export-filename="gatorsimple.svg"
   inkscape:export-xdpi="2.7367003"
   inkscape:export-ydpi="2.7367003"
   xmlns:inkscape="http://www.inkscape.org/namespaces/inkscape"
   xmlns:sodipodi="http://sodipodi.sourceforge.net/DTD/sodipodi-0.dtd"
   xmlns:xlink="http://www.w3.org/1999/xlink"
   xmlns="http://www.w3.org/2000/svg"
   xmlns:svg="http://www.w3.org/2000/svg">
  <sodipodi:namedview
     id="namedview1"
     pagecolor="#ffffff"
     bordercolor="#000000"
     borderopacity="0.25"
     inkscape:showpageshadow="2"
     inkscape:pageopacity="0.0"
     inkscape:pagecheckerboard="0"
     inkscape:deskcolor="#d1d1d1"
     inkscape:document-units="mm"
     inkscape:zoom="0.83829265"
     inkscape:cx="-113.32558"
     inkscape:cy="731.24821"
     inkscape:window-width="2728"
     inkscape:window-height="1105"
     inkscape:window-x="0"
     inkscape:window-y="0"
     inkscape:window-maximized="1"
     inkscape:current-layer="svg1">
    <inkscape:page
       x="0"
       y="-2.5388005e-21"
       width="178.07338"
       height="177.9109"
       id="page2"
       margin="0"
       bleed="0" />
  </sodipodi:namedview>
  <defs
     id="defs1">
    <linearGradient
       id="linearGradient1"
       inkscape:collect="always">
      <stop
         style="stop-color:#7dff5a;stop-opacity:1;"
         offset="0"
         id="stop1" />
      <stop
         style="stop-color:#2fd12b;stop-opacity:1;"
         offset="0.38076153"
         id="stop3" />
      <stop
         style="stop-color:#0f7a22;stop-opacity:1;"
         offset="0.72044086"
         id="stop4" />
      <stop
         style="stop-color:#062b12;stop-opacity:1;"
         offset="1"
         id="stop2" />
    </linearGradient>
    <inkscape:path-effect
       effect="skeletal"
       id="path-effect72"
       is_visible="true"
       lpeversion="1"
       pattern="M 0,4.9921382 C 0,2.2364779 2.2364779,0 4.9921382,0 c 2.7556604,0 4.9921383,2.2364779 4.9921383,4.9921382 0,2.7556604 -2.2364779,4.9921383 -4.9921383,4.9921383 C 2.2364779,9.9842765 0,7.7477986 0,4.9921382 Z"
       copytype="single_stretched"
       prop_scale="1"
       scale_y_rel="false"
       spacing="0"
       normal_offset="0"
       tang_offset="0"
       prop_units="false"
       vertical_pattern="false"
       hide_knot="false"
       fuse_tolerance="0" />
    <radialGradient
       inkscape:collect="always"
       xlink:href="#linearGradient1"
       id="radialGradient2-9"
       cx="103.5239"
       cy="150.86717"
       fx="103.5239"
       fy="150.86717"
       r="84.308861"
       gradientUnits="userSpaceOnUse"
       gradientTransform="translate(4.57e-4,1.95e-4)" />
    <radialGradient
       inkscape:collect="always"
       xlink:href="#linearGradient1"
       id="radialGradient2-9-2"
       cx="103.5239"
       cy="150.86717"
       fx="103.5239"
       fy="150.86717"
       r="84.308861"
       gradientUnits="userSpaceOnUse"
       gradientTransform="translate(4.5464941e-4,1.9982471e-4)" />
  </defs>
  <g
     inkscape:groupmode="layer"
     id="layer3"
     inkscape:label="Cable"
     style="display:inline"
     transform="translate(-14.568542,-61.911819)">
    <circle
       style="fill:url(#radialGradient2-9);fill-opacity:1;stroke:#3b3b4b;stroke-width:10;stroke-dasharray:none;stroke-opacity:1"
       id="path1-18"
       cx="103.52436"
       cy="150.86736"
       r="83.95536" />
    <circle
       style="fill:url(#radialGradient2-9-2);fill-opacity:1;stroke:#3b3b4b;stroke-width:10;stroke-dasharray:none;stroke-opacity:1"
       id="path1-18-2"
       cx="103.52436"
       cy="150.86736"
       r="83.95536" />
    <path
       style="display:none;fill:#d58653;fill-opacity:1;fill-rule:nonzero;stroke:none;stroke-width:0.207;stroke-dasharray:none;stroke-opacity:1;shape-rendering:geometricPrecision"
       d="m 112.39915,147.48964 -1.63901,4.23048 8.4586,1.39872 6.57944,1.51857 c 0,0 6.12604,3.31511 9.40212,4.45137 1.97404,0.68467 7.87042,0.69474 7.87042,0.69474 l 5.87427,1.16709 c 0,0 6.99291,-2.10981 10.56742,-2.83237 17.4987,-3.53719 12.79982,-2.24792 12.79982,-2.24792 l 2.45776,-6.93301 0.70174,-2.35001 -5.98859,1.29962 c 0,0 -2.93441,1.03677 -11.62257,4.36064 -4.08195,1.56165 -8.89789,3.28074 -12.91728,2.24807 -2.11335,-0.54297 -11.86734,-3.39114 -11.86734,-3.39114 l -5.99202,-1.40186 z"
       id="path69"
       sodipodi:nodetypes="ccccsccsccccssccc" />
    <path
       style="display:none;fill:#53bdd5;fill-opacity:1;fill-rule:nonzero;stroke:none;stroke-width:0.207;stroke-dasharray:none;stroke-opacity:1;shape-rendering:geometricPrecision"
       d="m 114.23727,151.96113 c 0,0 14.37034,7.0366 20.87767,9.33064 5.91727,2.08603 14.12298,2.81781 20.28888,0.78216 10.10984,-3.33773 16.10345,0.16336 16.10345,0.16336 l 1.87063,-6.81481 c 0,0 -6.43159,-0.89449 -9.63211,-0.57504 -3.06164,0.30559 -5.94636,0.90483 -8.92364,2.36045 -3.86756,1.89088 -11.74271,2.24663 -11.74271,2.24663 0,0 -3.02427,-0.24762 -6.10933,-1.28431 -3.05543,-1.02674 -7.56182,-4.20779 -10.18016,-6.07216 -2.29805,-1.63632 -8.19338,-2.36721 -9.09752,0.88973 -0.20788,0.74883 -1.21346,-1.61083 -1.21346,-1.61083 z"
       id="path67-2"
       sodipodi:nodetypes="cssccascssscc" />
    <path
       style="display:none;fill:#d55353;fill-opacity:1;fill-rule:nonzero;stroke:none;stroke-width:0.207;stroke-dasharray:none;stroke-opacity:1;shape-rendering:geometricPrecision"
       d="m 118.74727,151.82743 c 0,0 10.30419,9.78254 16.81152,12.07658 5.91727,2.08603 12.54559,3.31813 18.79645,2.77735 10.60695,-0.91765 17.26599,-0.004 17.26599,-0.004 l 1.87063,-6.81481 c 0,0 -6.43159,-0.89448 -9.63211,-0.57504 -3.06164,0.30559 -5.69267,1.62299 -8.92364,2.36045 -4.28399,0.97782 -11.74271,2.24663 -11.74271,2.24663 0,0 -3.93818,-0.49561 -6.10933,-1.28431 -3.02963,-1.10052 -6.27139,-5.35542 -8.93573,-7.15344 -2.54732,-1.71905 -6.45094,-3.69827 -9.51838,-3.51158 -0.77571,0.0472 0.11731,-0.11755 0.11731,-0.11755 z"
       id="path67"
       sodipodi:nodetypes="cssccascssscc" />
    <path
       style="display:none;fill:#ffdb50;fill-opacity:1;fill-rule:nonzero;stroke:#3a3a3a;stroke-width:0.707001;stroke-dasharray:none;stroke-opacity:1;shape-rendering:geometricPrecision"
       d="m 176.5936,147.35096 -3.06181,8.80759 -1.06576,10.96446 -0.41358,1.32938 12.04826,4.30348 7.80852,1.15284 2.07751,0.91095 4.48405,-0.67013 1.40748,-3.49004 3.81666,-2.99479 -1.66582,-3.7353 -3.82248,-1.57317 7.22473,-0.75666 1.82453,-2.07866 -2.91015,-2.57097 -2.16118,-1.40917 3.65056,-2.99457 1.82317,-3.15836 -5.06828,-1.57158 0.74126,-4.90112 -5.39849,0.007 -22.00362,4.4298 z"
       id="path73" />
    <path
       id="path1-1"
       style="display:inline;fill:#434343;fill-opacity:1;fill-rule:nonzero;stroke:none;stroke-width:0.207;stroke-dasharray:none;stroke-opacity:1;shape-rendering:geometricPrecision"
       d="m 175.5381,169.00221 c -7.09785,-1.78061 5.20166,-8.20286 -1.18449,-12.60517 8.00995,-2.29383 6.47544,-0.37445 12.65268,-0.46615 7.06638,0.15407 7.81187,1.33195 -0.81075,2.026 -5.51565,0.40655 -2.19222,1.04326 -4.75095,2.64773 6.20985,2.25931 9.4857,-0.93847 8.90083,3.44127 -1.36373,4.02591 -10.7769,-5.59423 -15.25857,0.68457 6.26936,-0.60836 14.04747,3.63926 12.17863,6.13484 0.58983,2.98681 -1.23961,0.55714 -7.93103,-0.73582 m 0.55792,1.96738 c 4.05206,1.5554 8.28381,2.14099 8.21316,-4.15085 7.14835,-2.24518 0.97138,-6.35794 -2.94471,-7.88843 1.64118,0.27456 -6.1956,-1.73423 5.4984,-0.70517 1.635,0.14388 0.22349,0.20467 0.14746,-1.62852 -0.53346,-3.172 -6.18493,0.11525 -0.39371,-2.29682 3.41009,-3.81393 2.21398,-3.85066 0.94981,-5.08913 -2.24053,-1.45233 -3.4516,1.21878 -1.23024,-1.22713 1.41699,-2.43092 3.91228,-5.56999 -1.79747,-5.75474 -8.51748,0.59207 -3.55546,0.79837 -12.93616,2.01754 -3.14536,-0.38225 0.74598,5.04962 -3.92552,9.90262 3.85904,8.54838 -7.32194,12.27859 3.62425,15.78143 m 14.60217,-25.10573 c 1.9933,-0.53768 0.44422,1.35091 -0.88171,2.72789 -6.55015,2.24948 -5.37669,1.86488 -10.71155,-0.26917 -0.26589,-1.34026 7.54841,-2.21106 11.59326,-2.45872 z m 0.78182,5.45894 c 1.26238,7.00374 -1.26392,2.60896 -5.37652,2.56535 -3.97561,-0.0626 -12.67385,-0.0173 -4.86354,-2.94776 1.4671,-0.0188 7.29778,-1.92503 10.24006,0.38241 z"
       sodipodi:nodetypes="ccccccccccccscccccccccccccccc" />
    <path
       style="display:inline;fill:#434343;fill-opacity:1;fill-rule:nonzero;stroke:none;stroke-width:0.207;stroke-dasharray:none;stroke-opacity:1;shape-rendering:geometricPrecision"
       d="m 174.6485,145.76616 -11.38796,4.12542 c 0,0 -3.71744,1.76121 -8.15928,3.06422 -6.14769,1.8034 -12.50797,0.83808 -12.50797,0.83808 l -16.78471,-3.57337 c 0,0 9.96624,2.55046 16.66964,5.45281 2.82086,1.22133 8.5156,0.0479 8.5156,0.0479 13.31544,-2.98906 8.86738,-2.34808 23.89079,-9.01572 z"
       id="path71"
       sodipodi:nodetypes="ccsccsccc" />
    <path
       style="display:none;fill:none;fill-opacity:1;fill-rule:nonzero;stroke:none;stroke-width:0.609314;stroke-dasharray:none;stroke-opacity:1;shape-rendering:geometricPrecision"
       d="m 117.16761,55.733006 c 0.90314,0.03351 1.65514,2.634001 2.21948,7.15225 m -0.80136,1.736412 c -0.48147,0.612346 -1.0067,1.260269 -1.57351,1.941354 m 0.9077,-2.37289 c 0.20462,0.871756 0.41072,1.797802 0.61765,2.774838 m -0.032,0.85515 c -0.0813,1.35363 -0.18612,2.798306 -0.31373,4.325644 m -0.12113,0.4915 c -0.24993,1.101402 -0.51837,2.245526 -0.8046,3.429087 l 0,-10e-7 m -1.61202,-4.490164 c 0.96085,0.519486 1.94872,1.06092 2.96145,1.623187 l 2.5e-4,4.5e-5 m -1.48444,-0.585991 c 0,0 0,10e-7 0,10e-7 0.0108,0.0013 0.0349,0.0043 0.0457,0.0056 0.039,0.0048 0.0777,0.0096 0.1162,0.0144 v 0 l 0,0 0,0 c 0.13614,0.01709 0.27189,0.03453 0.40735,0.05227 0,0 0,10e-7 0,10e-7 l 0,0 c 0.40682,0.05318 0.82311,0.111313 1.24706,0.175902 l 0,0 c 0.42335,0.06304 0.89449,0.141309 1.40844,0.247632 l 0,0 0,0 0,0 c 0.17659,0.03408 0.42069,0.09275 0.73151,0.183819 -0.12844,-0.190159 0.43444,0.09038 1.67448,0.891345 -0.85634,-0.574819 -1.13974,-0.778554 -0.86651,-0.571486 0.0339,0.0068 0.11917,0.02815 0.2546,0.07003 l 0,0 c 0.34676,0.102932 0.72368,0.205266 1.14236,0.320626 l 0,0 c 0.386,0.105461 0.7776,0.21019 1.17811,0.316225 l 0,0 c 0.12959,0.03429 0.25895,0.06834 0.38809,0.102096 l 0,0 c 0.0367,0.0096 0.073,0.01905 0.10887,0.02834 10e-6,0 10e-6,0 10e-6,0 l 0,0 m -0.3491,-0.0924 c 0.025,0.0066 0.0193,0.0051 0.0443,0.01164 2.08572,0.37293 4.24089,0.774286 6.45485,1.202758 1.13575,0.21478 2.28695,0.436621 3.45214,0.665345 m -3.32776,0.4587 c 0.79251,-0.444653 1.59388,-0.89156 2.40353,-1.340356 m -2.31212,2.669552 c 0.23381,-0.68301 0.47059,-1.370256 0.71027,-2.061433 0,-1e-6 0,-3e-6 0,-4e-6 m 1.27447,-1.934141 c 0.90113,-0.864147 1.81498,-1.734651 2.74051,-2.610342 m -1.54239,4.244352 c -0.14162,-1.10359 -0.28118,-2.216709 -0.41847,-3.338339 m 1.04233,2.493728 c -0.001,-0.0017 -0.003,-0.0034 -0.004,-0.0051 -0.54249,-0.684699 -1.08042,-1.366794 -1.61351,-2.045881 m 2.88969,-7.977701 c 0.86111,-0.17564 1.71718,-0.348195 2.56772,-0.517608 m -1.0793,0.358158 c 0.77318,-0.35085 1.54188,-0.69756 2.30564,-1.039971 m -2.76088,3.50664 c 0.12008,-0.558228 0.24041,-1.113422 0.36096,-1.665438 m 1.21661,4.311182 c -0.55754,-0.621041 -1.10918,-1.238403 -1.65463,-1.851699 m 1.6558,1.164552 c -0.94752,-0.428659 -1.8833,-0.855401 -2.80647,-1.279754 m -0.47331,-8.579454 c 1.11348,-0.58852 2.21225,-1.16389 3.29461,-1.725342 m -1.7555,1.74107 c 0.58115,-0.933058 1.15658,-1.849578 1.72551,-2.748431 m 0.21741,4.877968 c -0.47267,-0.739703 -0.93633,-1.470291 -1.39058,-2.191088 m 2.57705,1.762378 c 0,-10e-7 0,-10e-7 0,-10e-7 -0.72176,-0.214195 -1.43296,-0.427482 -2.1331,-0.639686 m -3.25756,-4.732275 c 0.12979,-0.714639 0.25977,-1.418319 0.38982,-2.110528 m 0.26699,2.08083 c -0.25364,-0.765593 -0.49991,-1.518073 -0.73859,-2.256685 m 3.58684,2.537347 c -1.22987,-0.134424 -2.41971,-0.272039 -3.56634,-0.412416 m 0.9282,-0.07691 c -2.28267,0.287998 -4.40186,0.523413 -6.33252,0.703403 m -0.14727,0.02721 c 0,0 0,0 0,0 -2.43515,0.111266 -4.56853,0.14912 -6.35015,0.110271 m 0.3533,-0.08617 c -3.75059,0.523123 -5.98842,0.450645 -6.24503,-0.325209 -0.25661,-0.775853 1.49667,-2.168386 4.81951,-3.984785 m 0.3533,-0.08617 c 1.6801,-0.594077 3.71831,-1.225306 6.06611,-1.88118 0,0 0,0 0,-1e-6 m -0.14727,0.02721 c 1.84078,-0.609422 3.87649,-1.243682 6.08304,-1.895337 m 0.9282,-0.07691 c 1.15428,-0.04601 2.35138,-0.08573 3.58814,-0.118994 m 3.58684,2.537347 c 0.33645,0.699513 0.67696,1.414307 1.02117,2.143679 m 0.26699,2.08083 c -0.0455,0.702846 -0.094,1.416788 -0.14532,2.1413 m -3.25756,-4.732274 c 0.71905,0.134846 1.44842,0.273839 2.18757,0.4169 0,0 1e-5,0 1e-5,0 m 2.57705,1.762378 c 0.52213,0.673255 1.05025,1.358692 1.58386,2.055718 m 0.21741,4.877968 c -0.49078,0.943796 -0.99355,1.902102 -1.50775,2.873661 m -1.7555,1.741069 c -1.04027,0.636061 -2.10094,1.278979 -3.18047,1.927677 m -0.47331,-8.579454 c 0.94506,0.373085 1.90056,0.753624 2.86557,1.141314 m 1.6558,1.164552 c 0.57122,0.589376 1.14603,1.185229 1.72407,1.787235 m 1.21661,4.311182 c -0.10197,0.555746 -0.20537,1.114342 -0.31018,1.675638 m -2.76088,3.50664 c -0.75414,0.363121 -1.51474,0.727239 -2.2814,1.092115 m -1.0793,0.358157 c -0.84731,0.184878 -1.70096,0.369089 -2.56044,0.552485 m 2.88969,-7.977701 c 0.53918,0.674255 1.08019,1.353905 1.62269,2.038605 0.001,0.0017 0.003,0.0034 0.004,0.0051 m 1.04233,2.493727 c 0.13727,1.121633 0.27027,2.235555 0.39899,3.340724 m -1.54239,4.244352 c -0.9357,0.864816 -1.86544,1.718322 -2.78799,2.559562 m 1.27447,-1.934141 c 0,10e-7 0,3e-6 0,4e-6 -0.25697,0.684939 -0.51365,1.365003 -0.76991,2.039909 m -2.31212,2.669552 c -0.82406,0.42178 -1.64192,0.837725 -2.45297,1.24758 m -3.32776,0.4587 c -1.16084,-0.280806 -2.3059,-0.561975 -3.43374,-0.843047 -2.19271,-0.556261 -4.32026,-1.111942 -6.37207,-1.663622 -0.0648,-0.02294 0.0207,0.0073 -0.0438,-0.01553 m -0.3491,-0.0924 0,0 c 0,0 0,-2e-6 0,-2e-6 -0.04,-0.01413 -0.0794,-0.02814 -0.11843,-0.04203 l 0,0 c -0.13706,-0.04884 -0.2731,-0.09773 -0.40817,-0.14661 l 0,0 c -0.41572,-0.150446 -0.83064,-0.303381 -1.24572,-0.460311 l 0,0 c -0.43268,-0.163481 -0.88901,-0.338836 -1.37044,-0.537115 l 0,0 c -0.17041,-0.0694 -0.38895,-0.161053 -0.65287,-0.280187 0.11095,0.138696 -0.34693,-0.123237 -1.33747,-0.811069 1.11118,0.692621 1.50302,0.933423 1.2153,0.690619 0.0216,-0.0042 -0.0283,-0.0234 -0.14504,-0.06398 l 0,0 0,-10e-7 0,0 c -0.29245,-0.09892 -0.63376,-0.195249 -1.01076,-0.298907 l 0,0 c -0.35772,-0.09821 -0.72012,-0.193957 -1.08357,-0.288037 0,0 0,-10e-7 0,-10e-7 -0.12053,-0.0312 -0.23993,-0.06197 -0.35846,-0.09229 0,0 0,-10e-7 0,-10e-7 0.0308,0.0079 -0.13358,-0.034 -0.10274,-0.02614 -0.009,-0.0024 -0.0302,-0.0076 -0.0395,-0.01001 0,0 0,-10e-7 0,-10e-7 m -1.48443,-0.58599 0,0 c -0.9342,-0.685253 -1.83883,-1.356575 -2.71224,-2.012516 m -1.61202,-4.490165 0,0 c 0.45821,-1.128179 0.90785,-2.213951 1.3476,-3.254223 m -0.12113,0.4915 c 0.39426,-1.48108 0.78216,-2.876646 1.16149,-4.17858 m -0.032,0.85515 c 0.0148,-0.998599 0.0386,-1.947003 0.0714,-2.84185 m 0.9077,-2.372889 c 0.7265,-0.507273 1.41646,-0.975919 2.06727,-1.403971 m -0.80136,1.736412 c 0.89765,-4.463997 1.84032,-7.001598 2.74346,-6.968084"
       id="path72"
       transform="matrix(1.2305738,0,0,1.094083,31.579455,86.20937)"
       inkscape:original-d="m 117.16761,55.733006 -0.26199,7.060168 -1.82039,1.672661 0.27314,2.808344 -0.73761,4.252112 -1.0761,3.341654 2.83672,1.81783 c 0,0 3.30778,0.602566 3.578,0.829914 0.27023,0.22735 3.71351,1.285195 3.71351,1.285195 l 6.41335,1.433156 3.44294,0.754196 2.42825,-1.293968 0.74009,-2.050675 2.76425,-2.584952 -0.40873,-3.339531 -1.62211,-2.047301 2.56408,-0.535046 2.29352,-1.066043 0.33557,-1.670538 -1.68935,-1.819467 -2.83602,-1.210534 3.23754,-1.82651 1.61663,-2.811045 -1.48722,-2.123403 -2.16034,-0.528294 0.26757,-2.125914 -0.87988,-2.200182 -3.57724,-0.146711 -6.20778,1.29937 -6.20813,0.995726 z"
       inkscape:path-effect="#path-effect72" />
    <path
       style="display:none;fill:#d55353;fill-opacity:1;fill-rule:nonzero;stroke:none;stroke-width:0.207;stroke-dasharray:none;stroke-opacity:1"
       d="m 42.787542,178.70386 -0.93263,5.5216 6.341856,-0.59533 16.791069,-4.01483 18.900646,-7.65864 22.066877,-11.65616 1.76049,-1.05934 1.76004,-1.41171 4.34108,-3.7641 3.99827,3.75351 3.16607,-4.11498 c 0,0 2.38251,-0.38367 1.29111,-0.70637 -3.55449,-1.05099 -0.35162,0.58772 -0.35162,0.58772 0,0 -1.5362,-1.79208 -5.05357,-2.34269 -4.15975,-0.65116 -5.40296,0.007 -5.40296,0.007 l -2.22777,3.05668 -2.23151,0.12029 -2.23463,-2.34627 -2.46553,0.82532 -1.99495,1.412 -3.403824,1.88362 -6.219777,4.23631 -7.86385,4.47331 -10.095061,4.82851 -10.096849,3.41905 -12.797433,4.12721 z"
       id="path66"
       sodipodi:nodetypes="cccccccccccscsccccccccccccc" />
    <path
       style="display:none;fill:#53bdd5;fill-opacity:1;fill-rule:nonzero;stroke:none;stroke-width:0.207;stroke-dasharray:none;stroke-opacity:1"
       d="m 41.486278,171.42325 0.830697,6.69393 7.163146,-1.30112 11.976886,-2.83415 7.983545,-2.71163 11.151862,-5.06477 13.966764,-8.23965 5.163568,-3.53023 -1.52991,-2.34717 z"
       id="path65" />
    <path
       style="display:none;fill:#d58653;fill-opacity:1;fill-rule:nonzero;stroke:none;stroke-width:0.207;stroke-dasharray:none;stroke-opacity:1;shape-rendering:geometricPrecision"
       d="m 46.05809,164.3701 -4.221683,5.29087 4.347347,1.16904 13.621861,-2.36643 6.104705,-2.35687 9.157205,-3.41785 13.147858,-5.65458 7.982353,-3.65127 2.23031,-1.05994 -1.29604,-3.16966 -3.873795,1.76676 -3.407105,-0.7004 z"
       id="path64" />
    <path
       style="display:inline;fill:#949494;fill-opacity:1;fill-rule:nonzero;stroke:none;stroke-width:0.207;stroke-dasharray:none;stroke-opacity:1"
       d="m 17.429728,165.99648 5.288256,19.76729 15.263582,0.58082 3.404867,-1.06143 1.04934,-6.10903 c 0,0 -1.6496,-4.10886 -1.650198,-4.57868 -5.29e-4,-0.46982 1.51916,-6.10963 1.51916,-6.10963 l 2.695509,-4.70165 -22.902341,1.20366 c 0,0 -3.537258,-0.18631 -4.124685,-0.30302 -0.587428,-0.1167 -0.979904,-2.77624 -0.979904,-2.77624 z"
       id="path63"
       sodipodi:nodetypes="cccccccccscc" />
  </g>
  <g
     inkscape:label="Layer 1"
     inkscape:groupmode="layer"
     id="layer1"
     transform="translate(-14.568542,-61.911819)">
    <path
       style="display:inline;fill:#ffffff;fill-opacity:1;fill-rule:nonzero;stroke:none;stroke-width:0.207;stroke-dasharray:none;stroke-opacity:1;shape-rendering:geometricPrecision"
       d="m 87.021579,141.884 2.357022,6.22216 2.470597,3.16817 3.169211,-1.64841 1.643187,-0.94173 1.41394,3.52187 1.41216,2.11241 2.817744,-0.94322 1.28932,-2.11584 2.3509,1.40648 1.88183,1.99435 1.17366,-0.70622 2.11032,-3.05653 1.99077,-4.70076 2.11659,1.8766 1.64572,1.05501 1.75825,-2.82117 3.28667,-1.64856 2.58701,2.34583 1.06067,2.81759 2.35374,3.63814 2.93595,-0.3561 1.28977,-1.76348 2.47074,3.28563 2.11614,1.52423 2.22778,-3.05668 1.63691,-5.87487 2.93774,1.05337 1.76407,1.7596 2.58178,-1.76512 2.69805,-2.70491 3.05727,2.6976 1.29784,4.57912 2.46597,-0.47295 2.93012,-4.93687 1.52259,-3.40815 5.40087,-1.65124 1.64841,3.16921 1.17843,3.05235 2.58208,-1.5302 2.22495,-5.28834 0.46564,-3.28935 -7.16449,0.24401 -25.36593,3.5559 -38.29125,-0.53862 z"
       id="path70" />
    <path
       style="display:inline;fill:#ffffff;fill-opacity:1;fill-rule:nonzero;stroke:#3b3b4b;stroke-width:0.207;stroke-dasharray:none;stroke-opacity:1;shape-rendering:geometricPrecision"
       d="m 110.18466,160.99986 0.81651,-4.46436 2.46299,-2.82207 2.23524,2.8161 2.47089,3.40308 2.46015,-5.05372 1.75855,-2.58627 2.58596,1.52365 1.65199,5.98814 2.23181,0.11462 2.46298,-2.82207 1.29351,1.17291 2.12121,5.51773 3.52396,0.23043 6.57841,0.69638 1.75915,-2.11644 2.70357,1.64095 2.70297,1.17112 1.99495,-1.41201 c 0,0 0.69892,-4.58166 1.16874,-4.58225 0.46982,-5.3e-4 3.05862,3.75469 3.05862,3.75469 l 0.82905,5.40191 3.63918,-1.53154 1.75841,-2.70372 2.10852,-4.466 1.76482,2.34687 0.82875,5.16701 -1.40588,2.82072 -9.62852,2.24389 -13.86229,-1.97913 z"
       id="path68" />
    <path
       style="display:inline;fill:#118305;fill-opacity:1;fill-rule:nonzero;stroke:none;stroke-width:0.207;stroke-dasharray:none;stroke-opacity:1"
       d="m 54.867779,182.32287 c 10.293441,-3.46157 14.639746,-4.10438 21.848521,-8.19759 6.727674,-3.82004 13.960822,-6.76075 21.283166,-9.25825 2.962804,-1.01055 9.105954,-2.297 9.105954,-2.297 l 10.98883,-0.92151 7.28042,0.28586 6.08289,3.56632 7.37241,3.92772 2.81558,0.48954 3.28374,0.72773 4.9396,-0.90511 5.27469,1.56387 2.22667,0.72033 4.47307,-1.3782 5.41104,-1.13672 1.99341,0.48378 -0.86655,6.3367 -6.72768,4.65126 c 0,0 -8.58556,1.58434 -9.17282,1.58023 -0.58727,-0.004 -14.06886,-3.73965 -14.06886,-3.73965 l -15.73127,-1.16721 -11.5301,2.73833 -6.75809,8.99702 -5.425844,3.25087 -15.744428,0.71204 c 0,0 -12.494895,-0.25744 -18.069647,-2.71052 -4.03605,-1.776 -14.464221,-6.91432 -10.284702,-8.31984 z"
       id="path62"
       sodipodi:nodetypes="ssaccccccccccccccccccccccas" />
    <path
       style="display:inline;fill:#118305;fill-opacity:1;fill-rule:nonzero;stroke:none;stroke-width:0.207;stroke-dasharray:none;stroke-opacity:1"
       d="m 29.929082,163.43951 c 1.989938,1.99701 5.51018,1.44369 8.329284,1.46778 3.948669,0.0337 7.882413,-0.84709 11.700114,-1.85619 2.600179,-0.68728 4.962573,-2.1141 7.552679,-2.83842 3.009407,-0.84158 6.340612,-0.50226 9.213108,-1.73252 7.433171,-3.18356 17.889218,-6.97484 19.695165,-14.16277 0.524399,-2.08718 -17.016627,-3.4321 -17.016627,-3.4321 l 4.343663,-3.39116 9.858637,1.12611 9.481624,4.64723 c 0,0 7.967071,2.87475 8.554331,2.87886 0.58727,0.004 10.23401,-2.1601 10.23401,-2.1601 l 6.24308,-2.54041 7.14571,2.75155 8.67179,2.87968 8.71616,-3.46276 5.65746,-2.77942 6.32601,2.39343 8.4681,-1.58516 6.95026,-2.88783 5.1745,-0.90346 2.52322,-8.08699 -2.65457,-6.71371 -4.31945,-3.78889 -5.9901,-0.0419 -3.98928,-0.61521 -4.93466,0.20039 -5.19093,3.25251 -6.70632,1.59749 -14.77768,-3.15732 -5.85702,-2.27269 -6.28164,-8.73589 -6.07385,-4.8583 -8.80896,-0.0616 -0.72115,2.34413 -5.969553,-2.97824 -7.49232,-3.57618 -10.698887,1.4521 -5.452139,7.00936 -4.807347,-1.20823 -4.231587,0.44023 -2.501847,5.03321 -2.017244,2.92235 -6.932179,0.30387 -3.300185,1.62133 -1.439841,4.33589 -1.093237,5.16052 -3.295253,0.91661 -5.532607,1.72317 -2.24804,2.33344 -0.156901,5.63691 -1.088305,4.45581 -4.820497,0.67102 -3.419279,1.85541 0.787652,4.93877 3.289876,8.24512 c 0,0 -0.346438,3.97929 0.903049,5.23322 z"
       id="path61"
       sodipodi:nodetypes="aaaaasccccscccccccccccccccccccccccccccccccccccccccccccccaa" />
  </g>
  <path
     d="m 156.65521,108.03106 c -0.72738,-2.37319 -1.33491,-4.1631 -1.55892,-7.16969 -0.80706,-2.033079 -0.81139,-4.615529 -3.29105,-4.779789 -1.70715,0.38191 -1.84581,3.37345 -2.69135,6.009799 -0.81271,3.35106 -4.59441,2.73454 -4.53769,-0.46882 -0.50968,-2.053049 -2.9636,-6.154429 -4.49842,-5.283919 -0.83413,1.95801 -0.98023,6.545279 -3.84974,5.410969 -2.30027,-0.39571 -3.68823,-4.593239 -5.90121,-0.88824 -3.30248,-0.85021 -7.0103,-0.69505 -10.04637,-2.206059 -0.8694,-1.83864 -2.28303,-6.58592 -4.67674,-4.22827 -1.94299,3.63383 -3.9233,1.4066 -4.05218,-1.7261 -0.89723,-1.87864 -2.41268,-4.73651 -4.89978,-2.6122 -1.90544,0.7799 -2.27983,6.14619 -4.38544,4.52214 -0.69349,-1.94283 -2.774592,-5.59137 -4.849972,-3.12524 -2.30458,2.0477 -2.80828,5.33773 -4.24985,7.81961 -2.99664,1.344479 -5.64992,1.985879 -0.80028,2.195979 5.7033,0.70068 11.619182,-2.624609 17.238532,-0.2152 6.20321,2.79468 11.73136,7.91179 18.78744,8.13973 3.76236,0.2851 7.80782,-1.5613 11.16259,1.01767 4.51458,2.2736 9.6368,0.4404 13.63617,-2.22854 1.17286,3.11703 -2.00681,5.88515 -4.18183,7.64237 -5.36598,4.00814 -12.36873,2.78045 -18.17821,0.5974 -9.22812,-2.2548 -18.7029,-3.20211 -28.13131,-3.85263 -9.741692,-0.34658 -19.693426,0.85481 -29.412099,1.58695 -3.762282,0.20333 -6.049025,-2.7369 -11.201366,-2.09418 -3.893475,0.6906 -3.216124,3.2223 0.466098,4.08784 10.251331,1.67843 19.685751,1.70782 29.491915,1.47848 3.22392,0.23665 -2.81474,2.88882 -4.15452,3.23858 -6.008774,1.8715 -12.279804,2.66395 -18.5338,2.38989 5.797897,2.7867 12.491396,2.36481 18.5338,0.73536 1.25493,2.61152 -3.025194,3.584 -5.065924,3.55874 -12.294668,2.22588 -25.326774,0.54219 -36.56287,-5.30423 -2.451628,-1.19555 -3.150035,-2.80731 -7.525791,-2.56579 -4.000988,0.0433 -3.463219,1.35303 -0.461366,3.34129 6.404935,4.00306 12.815078,7.11736 19.781918,8.81285 5.621808,1.44812 10.962471,1.77381 17.10235,1.53287 5.854007,-0.10438 10.420973,-0.94123 15.503083,-2.20605 2.0198,-4.97317 4.96989,-9.71459 9.737762,-12.07781 6.98416,-3.77447 15.05162,-1.42241 22.41874,-0.39054 5.63092,0.60919 11.02127,2.82172 16.60291,3.46029 7.09457,0.3771 14.99876,-3.70443 17.23477,-11.21411 z m -24.24983,-6.25051 c 1.71801,1.59287 3.0086,5.93511 -0.69009,5.0656 -3.96691,0.93448 0.38037,-3.78395 0.69009,-5.0656 z m 19.9195,-2.022209 c 0.59665,1.639869 2.48801,6.657479 -0.60393,5.985699 -3.87046,0.74008 -0.0321,-4.62593 0.60393,-5.985699 z m -10.91242,-0.55151 c 1.7445,2.711949 2.13354,6.166669 2.25176,9.375729 -1.37536,0.69611 -6.35365,-0.61376 -4.82835,-2.90788 1.27118,-1.96896 1.32247,-4.63502 2.57659,-6.467849 z m -24.76947,-2.75757 c 1.90677,1.47154 2.24845,4.735459 2.25177,7.169679 -1.6778,-1.57222 -6.15885,-2.15675 -3.81068,-5.147469 0.51963,-0.67407 1.03928,-1.34814 1.55891,-2.02221 z m -17.667732,-3.30908 c 1.318132,1.68275 3.690582,5.8868 -0.0746,5.51757 -4.11202,1.759309 -2.44728,-2.78782 -0.81552,-4.74071 0.2693,-0.28281 0.59975,-0.51323 0.89013,-0.77686 z m 9.007082,-1.47071 c 2.33593,1.39589 2.08046,4.78469 2.94462,7.16968 -1.12159,-0.52153 -6.19988,0.28483 -5.58094,-1.96195 0.58879,-1.93968 1.33181,-3.68566 2.63632,-5.20773 z"
     style="display:inline;fill:#021106;fill-rule:evenodd;stroke-width:0.178446"
     id="path1-3-6"
     sodipodi:nodetypes="ccccccccccccccccccccccccccccccccccccccccccccccccccccccccccccccccc" />
  <g
     inkscape:groupmode="layer"
     id="layer2"
     inkscape:label="Outlines"
     transform="translate(-14.568542,-61.911819)">
    <path
       fill="#06162f"
       fill-rule="evenodd"
       d="m 109.36533,157.59446 c -3.39357,1.27914 -31.525796,17.34274 -48.010513,20.99504 -4.975052,1.5332 -23.205201,6.37878 -17.375033,1.37746 21.399133,-6.52298 30.807806,-9.21178 49.062585,-20.53704 3.157377,-2.26266 11.171111,-7.68663 3.091067,-3.08836 -9.974003,6.53419 -20.316154,12.54641 -31.676655,15.82667 -7.141924,2.26125 -21.927718,6.31698 -22.172234,3.43886 -1.126991,-5.66686 2.882847,-2.81612 14.756092,-6.1728 14.094049,-2.88173 26.840316,-9.84493 39.635237,-16.0996 -16.758767,6.68822 -43.575044,17.17628 -50.210172,16.49871 -8.46074,-1.34494 3.884821,-5.24176 6.88171,-6.39114 13.772768,-3.62124 26.205191,-7.6402 39.171354,-13.38183 -6.018102,-5.46259 -5.619111,-0.7703 -19.879504,4.62577 -23.532843,7.11173 -34.069172,11.82866 -55.908434,5.38694 -4.000538,-1.14527 2.366046,1.84458 2.494319,8.55269 6.950648,1.62056 -6.410844,-2.62738 0.706282,-1.744 8.356266,1.20841 14.006649,0.0302 22.355554,-1.50973 -5.961826,5.68508 0.679129,14.41749 -2.035407,17.16997 -15.3935,1.40176 -15.877786,-17.85126 -20.29309,-15.19583 -6.750517,-0.1051 1.793427,-9.18043 2.04057,15.67568 10.59994,10.98792 26.418449,3.30823 67.351782,-11.21538 7.286706,-2.75889 21.88954,-10.54008 20.01449,-14.21208 z"
       id="path11"
       style="display:inline;fill:#434343;fill-opacity:1;stroke-width:0.178446;shape-rendering:geometricPrecision"
       inkscape:label="CableOutline"
       sodipodi:nodetypes="cccccccccccccccccccccc" />
    <path
       fill="#021106"
       fill-rule="evenodd"
       d="m 47.857413,153.92748 c -1.026644,1.64267 -1.668719,7.01499 -3.163858,6.83728 -2.662142,-2.53109 -0.291704,-7.42439 3.163858,-6.83728 z m -6.582095,-2.38989 c 0.459217,0.40213 -0.150697,0.82316 -0.204826,1.23348 -1.279279,1.51652 -1.863581,7.18731 -3.605861,5.9362 -1.933958,-3.02083 0.226499,-7.61484 3.810687,-7.16968 z m 7.621375,-9.92725 c 0.800732,0.79856 -1.055022,2.41536 -1.250166,3.41782 -1.174296,1.51156 -2.757095,7.77926 -3.926426,3.2979 -1.687642,-3.51026 1.796447,-7.24682 5.176592,-6.71572 z m 8.314226,-2.94141 h -9e-6 c -1.718811,5.46883 -1.415451,11.28982 0.01642,16.78151 1.633006,3.19506 0.864331,4.0011 -2.986099,4.00147 -1.72775,-0.95203 -1.05322,-3.35087 -1.187425,-5.52469 -0.384625,-5.37245 0.986866,-11.0494 4.157113,-15.25829 z m -0.173212,-8.64038 c 0.02348,1.52028 -2.708744,4.1469 -4.157114,5.3313 -1.009809,-2.83841 1.104031,-6.48879 4.157114,-5.3313 z m 98.904653,-5.14746 c 1.86275,-1.71484 4.67648,-0.23728 5.91993,1.59752 2.46531,2.39757 2.06056,5.47998 -1.05029,2.1408 -1.89507,-0.95012 -6.16068,-0.10981 -4.86964,-3.73832 z m -67.206666,-10.6626 c -1.734826,2.12544 -1.155917,5.26861 0.614384,7.16338 2.505106,2.35607 4.278291,1.94103 2.557159,-1.5599 2.014331,-2.1964 -1.003518,-4.81809 -3.171543,-5.60348 z m 9.873142,7.16967 c -2.313,-1.70046 -3.640334,-4.00366 -4.376601,0.37063 -1.460803,2.93826 3.736501,1.2226 4.376601,-0.37063 z m -36.201525,10.29493 c 1.889876,-5.76059 7.358144,-9.07061 12.820977,-9.72967 2.598313,0.46149 4.97547,-0.13365 7.447549,-0.6786 2.556489,-0.22553 -0.896048,-4.31646 0.883481,-6.15136 1.425451,-3.51525 -3.908004,-0.23343 -5.216406,-0.35346 1.900386,-3.56134 5.86486,-5.63737 9.642368,-4.59116 5.973929,1.40344 9.500146,7.69499 15.22866,9.47014 2.02239,1.51293 6.03873,-3.32883 4.3653,1.04456 -2.07351,2.73848 3.1045,3.57947 4.52636,5.40333 -0.0814,1.18328 -4.6062,-1.18827 -6.43052,-0.94631 -4.31244,-1.55717 -8.390364,1.31839 -12.695692,0.83355 -3.070798,0.15987 -6.163368,-4.02739 -8.920447,-1.65454 3.274269,2.74342 7.313245,4.93585 11.607005,4.28561 2.01902,-0.001 7.303564,-2.67227 3.28932,0.31034 -5.195249,3.63515 -11.560393,0.99507 -16.450143,-1.90196 -6.612387,-4.34205 -14.924177,-0.45942 -20.097812,4.65953 z m -0.519638,-18.19995 c 1.030723,0.46978 1.986137,-0.96358 2.960954,-1.26716 1.576249,-0.98715 6.993257,-3.154 2.235242,-2.77728 -2.949034,-0.8665 -4.806238,0.99047 -5.196196,4.04444 z m -6.755309,4.77978 c -1.057256,0.0456 -2.152414,-0.0907 -3.195554,0.0666 -3.18682,-0.34762 -4.146145,3.78333 -3.559755,6.00007 z m -12.817766,11.58179 c -1.47056,0.50461 -3.132092,0.53978 -4.420748,1.51136 -1.982668,0.16423 -2.256094,7.53624 -0.291399,4.53197 1.30637,-2.01055 4.558944,-4.04978 4.712147,-6.04333 z m 131.122282,10.29492 c -1.09729,-0.0485 -2.19456,-0.0971 -3.29185,-0.14557 -2.98469,0.24524 0.54619,4.73279 0.52044,6.76374 1.66568,-1.32406 3.66693,-4.62742 2.77141,-6.61817 z m -54.56212,2.57374 -1.05275,0.13966 c -3.4724,-0.39043 -3.96919,2.53455 -1.76261,4.86145 1.51898,1.64049 3.38139,-3.66238 2.81536,-5.00111 z m -29.273003,0.18383 c -0.728217,1.24533 0.188364,2.46642 0.432068,3.71948 0.508922,2.86349 3.014614,4.92687 4.183382,1.19044 2.020159,-2.9956 -3.081614,-3.35274 -4.61545,-4.90992 z m 58.372793,0 c -0.78193,0.15561 -1.56387,0.31122 -2.34581,0.46683 -3.39187,0.2363 -1.96266,3.55572 -0.33897,5.23217 1.60318,0.24049 3.17971,-4.05534 2.68478,-5.699 z m -117.265227,1.10303 c -1.091569,0.67526 -4.416861,1.42865 -3.766874,3.19608 0.318886,3.8821 3.49127,-1.69001 3.766874,-3.19608 z m 128.870507,0 -0.12802,0.0226 c -1.64934,1.45675 -6.54871,-1.44452 -5.26475,2.05371 0.85057,1.49973 0.30936,7.87481 2.67051,5.15668 1.45001,-1.91468 3.42189,-4.70661 2.72226,-7.23304 z m -48.32644,1.10303 -0.18295,0.0971 c -1.39867,1.80106 -6.28589,0.48297 -5.79755,3.21357 0.53271,1.95302 2.33909,7.49822 4.07516,3.85902 0.87022,-2.17186 2.42311,-4.99482 1.90534,-7.16968 z m 16.3591,1.32887 c -1.1466,-0.74846 -2.38248,-0.067 -1.48075,1.80595 0.68052,1.73655 2.16061,6.19872 3.88708,2.78126 2.65717,-3.36888 1.01227,-3.91413 -2.40633,-4.58721 z m 11.5282,0.14183 c -1.20587,1.73213 -6.29643,0.2761 -5.85857,2.36556 0.62404,1.61287 1.3269,6.88597 3.34702,5.17174 1.40073,-2.0997 2.95906,-5.09217 2.51155,-7.5373 z m -41.397924,0.18384 c -0.46686,1.32956 0.58943,2.58442 0.86607,3.8606 1.06654,3.76414 3.444614,1.84754 4.114084,-0.96637 1.61343,-3.51672 -3.303534,-1.62336 -4.980154,-2.89423 z m -75.001243,-1.4707 c 2.475769,-3.02711 6.127429,-4.26542 9.526718,-5.69898 1.552808,-2.84013 0.321763,-6.85856 1.732131,-9.92725 2.787577,-2.40116 6.554411,-3.10072 10.046357,-3.67676 1.561753,-2.5699 0.698033,-6.28497 2.25177,-9.00805 2.663028,-2.22724 6.397858,-2.34834 9.702553,-2.47451 3.053567,0.49592 2.723987,-4.14614 4.157134,-6.11114 2.177921,-4.1611 7.563575,-2.74711 11.256205,-2.26079 2.311384,-2.65418 4.323871,-5.90354 7.658374,-7.186516 7.048843,-3.989951 15.265525,0.0368 20.748571,5.164296 3.685844,-0.84679 7.571534,-2.84149 11.447404,-1.45885 6.30062,2.15989 9.41502,9.10949 13.49527,14.14367 7.83276,2.16645 15.65868,5.59949 23.9034,4.59594 2.09792,-3.26945 5.95065,-5.59541 9.70654,-4.93903 2.60211,-0.18626 4.6171,2.74982 7.18881,0.89253 4.77554,-2.33444 9.4812,2.06193 11.21029,6.56241 2.45796,4.87775 3.91312,11.87445 -0.46493,16.06273 -1.00817,3.50915 -2.1394,7.78116 -5.46111,9.62892 -2.94023,1.51548 -2.14183,-3.97032 -3.18858,-5.70273 -1.35632,-2.07622 -1.62799,5.2566 -4.06957,3.94738 -2.0277,-4.4421 -2.23103,0.74422 -3.40123,2.66257 -1.36353,1.83667 -2.54452,4.32433 -5.28138,4.25649 -1.86773,-1.28597 -1.51877,-4.94855 -2.86606,-7.03906 -2.87931,-2.22933 -3.19392,2.05075 -5.29596,3.14926 -2.27878,2.92277 -3.62535,-3.62343 -5.52498,-2.08961 -0.69172,3.49567 -2.36066,7.39561 -5.63534,8.74867 -2.39679,0.25563 -2.75119,-6.43142 -4.69724,-3.92889 -1.9749,3.30519 -4.21518,-0.0772 -5.44303,-2.15622 -1.26674,-1.72605 -0.41226,-4.71608 -3.36451,-5.37228 -2.2099,0.0117 -2.51322,0.18098 -3.61401,3.01726 -0.69033,1.50819 -2.3084,2.56982 -3.19629,0.30552 -2.28019,-3.46155 -3.03567,1.49941 -4.0155,3.79813 -1.34568,2.59237 -3.97634,4.66407 -5.74509,1.23182 -1.55813,-4.42805 -2.23769,0.58876 -4.61854,1.30405 -2.050004,0.28566 -1.762794,-0.13634 -2.907134,-1.24825 -1.31198,-3.02731 -0.86522,-1.80124 -1.6255,-4.41295 -1.518994,-1.06476 -3.349474,5.35176 -5.565411,1.8689 -1.562391,-2.85075 -3.454914,-2.97737 -6.134034,-1.36345 -2.783479,1.83497 -2.96681,-3.91841 -4.588124,-5.1812 -3.908039,-4.29609 -11.476836,-3.92397 -16.486641,-1.42031 -3.974986,2.21563 0.222162,-2.99909 1.523198,-4.26367 5.675416,-5.41408 14.154477,-6.88678 21.382534,-4.52844 4.433261,2.06841 -2.464346,0.49721 -3.642139,1.65184 5.145844,1.41927 9.348099,5.14065 14.349757,6.84858 6.058374,2.82207 12.310834,-0.62455 17.867874,-3.17182 5.81855,-2.34148 10.61405,2.92352 15.86873,4.45887 4.99371,1.31081 9.18309,-2.2688 13.55564,-4.0854 4.02993,0.14113 0.67378,-3.35548 1.40755,-5.70477 2.34893,4.67927 7.61345,7.45147 12.51748,6.30385 4.10795,-0.67261 7.50946,-4.37815 11.65406,-4.36409 2.66171,0.77241 5.86215,0.0865 5.59171,-3.51933 0.29857,-4.76547 -1.86931,-10.10893 -5.62246,-12.86493 -1.96827,-1.33499 -6.58859,-0.0605 -4.03138,2.93199 0.10046,1.50079 -3.72073,-2.97048 -5.64199,-3.17084 -5.32649,-2.83195 -10.99118,3.30133 -10.43548,8.98584 -0.9405,2.30342 -1.87099,-3.36919 -2.1266,-4.41358 -3.40887,0.15873 -6.98829,-0.40658 -9.88288,1.93547 -1.78262,-0.0481 -5.28397,6.0523 -4.45661,2.28604 -0.12519,-2.11899 5.36703,-4.8796 2.04125,-5.56092 -3.10345,-1.29045 -6.38087,-0.58016 -9.29572,0.89212 -1.65259,-0.0685 -5.76711,5.47432 -4.68563,2.35818 0.66981,-2.80005 3.63878,-3.7642 5.1476,-5.58765 -2.64419,-1.06973 -5.3621,-1.97062 -7.95986,-3.14669 -1.99692,-1.2745 -6.72152,-3.65564 -1.77849,-2.11456 4.16476,1.73828 2.20161,-1.34046 0.38479,-3.37921 -2.6171,-3.86675 -6.98985,-7.93951 -11.74468,-5.72024 -3.10367,1.04729 3.04294,3.00879 4.12337,4.24962 3.64417,3.1245 0.79278,2.40162 -1.90534,0.73535 -4.48627,-2.10063 -0.87401,2.0322 0.51963,3.8606 -3.01057,-1.01743 -5.71896,-3.26907 -8.09782,-5.52639 -4.929663,-4.34539 -11.043826,-9.76566 -17.884137,-7.70995 -7.209025,3.58111 -10.69387,11.7733 -14.176389,18.89554 -1.428249,-0.16771 -0.220814,-4.78136 -0.655573,-6.43306 -3.510945,1.10065 -6.79916,3.94753 -9.894127,6.26008 -4.450399,2.6278 -7.421635,7.24953 -8.357605,12.52989 -0.34899,4.27327 -1.371192,-2.05142 -2.078556,-2.9414 -3.126359,3.33183 -6.463772,6.95454 -6.846293,11.89006 0.128584,4.77109 -1.849259,2.30376 -2.333999,-0.85979 -3.214547,3.36962 -5.353191,7.79388 -8.141014,11.58179 -1.954967,3.58527 7.676329,6.79067 7.377739,9.24705 -2.041335,0.16367 -5.540775,0.46094 -7.596887,0.42147 C 26.8263,157.32695 24.16266,151.73716 22.741523,145.2871 Z"
       id="path14-3"
       style="display:inline;fill:#051102;fill-opacity:1;stroke-width:0.178446;shape-rendering:geometricPrecision"
       inkscape:label="OutlineBlack"
       sodipodi:nodetypes="cccccccccccccccccccccccccccccccccccccccccccccccccccccccccccccccccccccccccccccccccccccccccccccccccccccccccccccccccccccccccccccccccccccccccccccccccccccccccccccccccccccccccccccccccccccc" />
  </g>
  <circle
     style="fill:none;fill-opacity:1;stroke:#3b3b4b;stroke-width:10;stroke-dasharray:none;stroke-opacity:1"
     id="path1"
     cx="88.95536"
     cy="88.955353"
     r="83.95536" />
</svg>
